HIERARCHY
ROOT Hips
{
	OFFSET 0.000000 0.000000 0.000000
	CHANNELS 6 Xposition Yposition Zposition Zrotation Yrotation Xrotation 
	JOINT LHipJoint
	{
		OFFSET 0.000000 0.000000 0.000000
		CHANNELS 3 Zrotation Yrotation Xrotation
		JOINT LeftUpLeg
		{
			OFFSET 1.363060 -1.794630 0.839290
			CHANNELS 3 Zrotation Yrotation Xrotation
			JOINT LeftLeg
			{
				OFFSET 2.448110 -6.726130 0.000000
				CHANNELS 3 Zrotation Yrotation Xrotation
				JOINT LeftFoot
				{
					OFFSET 2.562200 -7.039590 0.000000
					CHANNELS 3 Zrotation Yrotation Xrotation
					JOINT LeftToeBase
					{
						OFFSET 0.157640 -0.433110 2.322550
						CHANNELS 3 Zrotation Yrotation Xrotation
						End Site
						{
							OFFSET 0.000000 0.000000 0.000000
						}
					}
				}
			}
		}
	}
	JOINT RHipJoint
	{
		OFFSET 0.000000 0.000000 0.000000
		CHANNELS 3 Zrotation Yrotation Xrotation
		JOINT RightUpLeg
		{
			OFFSET -1.305520 -1.794630 0.839290
			CHANNELS 3 Zrotation Yrotation Xrotation
			JOINT RightLeg
			{
				OFFSET -2.542530 -6.985550 0.000000
				CHANNELS 3 Zrotation Yrotation Xrotation
				JOINT RightFoot
				{
					OFFSET -2.568260 -7.056230 0.000000
					CHANNELS 3 Zrotation Yrotation Xrotation
					JOINT RightToeBase
					{
						OFFSET -0.164730 -0.452590 2.363150
						CHANNELS 3 Zrotation Yrotation Xrotation
						End Site
						{
							OFFSET 0.000000 0.000000 0.000000
						}
					}
				}
			}
		}
	}
	JOINT LowerBack
	{
		OFFSET 0.000000 0.000000 0.000000
		CHANNELS 3 Zrotation Yrotation Xrotation
		JOINT Spine
		{
			OFFSET 0.028270 2.035590 -0.193380
			CHANNELS 3 Zrotation Yrotation Xrotation
			JOINT Spine1
			{
				OFFSET 0.056720 2.048850 -0.042750
				CHANNELS 3 Zrotation Yrotation Xrotation
				JOINT Neck
				{
					OFFSET 0.000000 0.000000 0.000000
					CHANNELS 3 Zrotation Yrotation Xrotation
					JOINT Neck1
					{
						OFFSET -0.054170 1.746240 0.172020
						CHANNELS 3 Zrotation Yrotation Xrotation
						JOINT Head
						{
							OFFSET 0.104070 1.761360 -0.123970
							CHANNELS 3 Zrotation Yrotation Xrotation
							End Site
							{
								OFFSET 0.000000 0.000000 0.000000
							}
						}
					}
				}
				JOINT LeftShoulder
				{
					OFFSET 0.000000 0.000000 0.000000
					CHANNELS 3 Zrotation Yrotation Xrotation
					JOINT LeftArm
					{
						OFFSET 3.362410 1.200890 -0.311210
						CHANNELS 3 Zrotation Yrotation Xrotation
						JOINT LeftForeArm
						{
							OFFSET 4.983000 -0.000000 -0.000000
							CHANNELS 3 Zrotation Yrotation Xrotation
							JOINT LeftHand
							{
								OFFSET 3.483560 -0.000000 -0.000000
								CHANNELS 3 Zrotation Yrotation Xrotation
								JOINT LeftFingerBase
								{
									OFFSET 0.000000 0.000000 0.000000
									CHANNELS 3 Zrotation Yrotation Xrotation
									JOINT LeftHandIndex1
									{
										OFFSET 0.715260 -0.000000 -0.000000
										CHANNELS 3 Zrotation Yrotation Xrotation
										End Site
										{
											OFFSET 0.000000 0.000000 0.000000
										}
									}
								}
								JOINT LThumb
								{
									OFFSET 0.000000 0.000000 0.000000
									CHANNELS 3 Zrotation Yrotation Xrotation
									End Site
									{
										OFFSET 0.000000 0.000000 0.000000
									}
								}
							}
						}
					}
				}
				JOINT RightShoulder
				{
					OFFSET 0.000000 0.000000 0.000000
					CHANNELS 3 Zrotation Yrotation Xrotation
					JOINT RightArm
					{
						OFFSET -3.136600 1.374050 -0.404650
						CHANNELS 3 Zrotation Yrotation Xrotation
						JOINT RightForeArm
						{
							OFFSET -5.241900 -0.000000 -0.000000
							CHANNELS 3 Zrotation Yrotation Xrotation
							JOINT RightHand
							{
								OFFSET -3.444170 -0.000000 -0.000000
								CHANNELS 3 Zrotation Yrotation Xrotation
								JOINT RightFingerBase
								{
									OFFSET 0.000000 0.000000 0.000000
									CHANNELS 3 Zrotation Yrotation Xrotation
									JOINT RightHandIndex1
									{
										OFFSET -0.622530 -0.000000 -0.000000
										CHANNELS 3 Zrotation Yrotation Xrotation
										End Site
										{
											OFFSET 0.000000 0.000000 0.000000
										}
									}
								}
								JOINT RThumb
								{
									OFFSET 0.000000 0.000000 0.000000
									CHANNELS 3 Zrotation Yrotation Xrotation
									End Site
									{
										OFFSET 0.000000 0.000000 0.000000
									}
								}
							}
						}
					}
				}
			}
		}
	}
}
MOTION
Frames: 9
Frame Time: 0.008333
-32.989097 18.035088 -1.577035 -40.688468 80.764647 -40.482625 -2.586483 -0.539744 -0.358819 -4.351853 0.375772 -21.940698 -0.494564 9.207407 24.336314 -0.751190 9.197849 20.759151 0.262300 3.294800 9.100700 3.848915 -2.419429 3.859700 21.920286 1.342164 -2.477498 2.381605 -5.096956 16.001856 5.778469 -20.062824 -11.692692 -0.037800 -1.255400 3.451900 1.921526 -1.720784 14.200964 5.236623 -1.327580 8.528999 2.408394 -0.084421 0.404349 -2.279311 4.329466 -7.725906 -1.153069 7.355031 16.150901 -1.586900 3.933000 4.797600 -1.339611 -5.396092 0.512671 -85.599622 5.331549 18.910056 23.570518 -33.256330 -9.073529 0.508132 -1.578773 0.435087 -0.883234 11.352913 -0.313400 -7.125000 0.000000 0.000000 -25.259200 41.439100 2.390800 2.140653 7.452230 2.848494 66.422953 -5.489597 40.953400 -23.400309 31.044048 -6.900073 0.755416 0.506788 3.995175 -2.216708 -16.108244 0.841600 7.125000 0.000000 0.000000 23.029500 -45.312900 -0.188000 
-32.972158 18.036936 -1.583502 -40.778569 80.871887 -40.518879 -2.622895 -0.563735 -0.363297 -4.407543 0.289037 -21.919676 -0.513983 9.196822 24.319897 -0.708460 9.103550 20.818869 0.264000 3.305600 9.130600 3.837784 -2.436328 3.867966 21.847878 1.373852 -2.474801 2.383143 -5.093034 15.983476 5.816883 -20.170233 -11.734897 -0.032700 -1.168100 3.211500 1.902988 -1.568458 14.106037 5.190278 -1.168273 8.425845 2.304140 0.035286 0.424264 -3.117850 5.060786 -5.835179 0.640927 7.496818 13.166805 -1.235300 4.002600 3.971400 -1.321833 -5.656156 0.530143 -85.323490 5.496541 18.993167 23.342599 -33.070255 -8.947614 0.508051 -1.587311 0.584460 -1.124938 11.538224 -0.373800 -7.125000 0.000000 0.000000 -25.534500 41.588700 2.318800 2.154671 7.191015 2.753447 66.617207 -5.880137 40.713506 -23.313660 30.978882 -6.872431 0.735991 0.593940 4.318311 -0.584307 -16.281477 0.370200 7.125000 0.000000 0.000000 24.589300 -45.358500 -0.231900 
-32.956144 18.038578 -1.590483 -40.920264 80.981026 -40.615354 -2.653556 -0.589041 -0.376173 -4.465453 0.183212 -21.907669 -0.519714 9.206253 24.354643 -0.692696 9.051476 20.810228 0.257400 3.263900 9.014300 3.827317 -2.456254 3.878569 21.783044 1.457675 -2.432683 2.391447 -5.077395 15.936382 5.848033 -20.268045 -11.828701 -0.037300 -1.245800 3.425400 1.918906 -1.432761 14.104812 5.121736 -1.018862 8.265511 2.175378 0.147161 0.354808 -3.911092 5.777922 -3.838305 2.154691 7.751629 10.501467 -0.776300 4.081400 2.723000 -1.316912 -5.889647 0.545100 -85.025552 5.741760 19.038059 23.131031 -32.904439 -8.836710 0.509606 -1.598467 0.708528 -1.418716 11.767793 -0.449600 -7.125000 0.000000 0.000000 -25.872700 41.774700 2.225500 2.153526 6.952981 2.665481 66.853697 -6.292272 40.489009 -23.240935 30.936510 -6.866250 0.717910 0.704159 4.336057 1.340556 -16.639845 -0.203600 7.125000 0.000000 0.000000 26.486700 -45.548600 -0.386100 
-32.942182 18.038989 -1.597053 -41.643385 81.027131 -41.285866 -2.646131 -0.595592 -0.389528 -4.437656 0.043580 -21.898023 -0.524773 9.211455 24.373675 -0.663397 8.980783 20.826362 0.255200 3.250400 8.976700 3.839363 -2.451238 3.881081 21.822565 1.509284 -2.402224 2.398231 -5.064120 15.902683 5.872571 -20.362270 -11.950841 -0.037500 -1.249800 3.436500 1.897884 -1.598392 14.209488 5.158309 -1.203391 8.389984 2.272082 0.021501 0.349746 -3.275961 5.054122 -5.652517 0.831486 7.413756 12.912353 -1.168400 3.956900 3.841100 -1.339872 -5.676011 0.528208 -85.161810 5.541996 18.508207 22.947402 -32.698816 -8.724071 0.515689 -1.601332 0.930298 -1.758830 11.783196 -0.531800 -7.125000 0.000000 0.000000 -26.170200 41.753500 2.270300 2.165813 7.158495 2.749002 66.528646 -6.089606 40.619845 -23.285972 31.028956 -6.946469 0.701633 0.838802 3.915257 3.351869 -17.304177 -0.848000 7.125000 0.000000 0.000000 28.608700 -46.006500 -0.774300 
-32.926886 18.040632 -1.603828 -41.772282 81.100984 -41.344809 -2.656735 -0.615609 -0.401724 -4.476199 -0.041713 -21.905067 -0.530061 9.223445 24.425886 -0.627046 8.848306 20.705359 0.273200 3.362100 9.288500 3.838494 -2.458906 3.887197 21.767707 1.550322 -2.406232 2.403777 -5.052635 15.864090 5.899105 -20.433228 -11.969489 -0.045700 -1.380000 3.794900 1.876756 -1.526044 14.223425 5.120397 -1.125013 8.320148 2.219066 0.076251 0.307839 -3.640113 5.321170 -4.844823 1.527341 7.460799 11.777199 -0.953500 3.962300 3.307300 -1.338436 -5.774929 0.533937 -85.019517 5.661878 18.345424 22.832048 -32.602773 -8.664271 0.512886 -1.611990 0.998457 -1.906149 12.096195 -0.579200 -7.125000 0.000000 0.000000 -26.417100 42.028700 2.099800 2.170610 7.054152 2.711545 66.603994 -6.265667 40.598335 -23.120856 30.893438 -6.887062 0.679200 0.909727 3.592566 4.553281 -17.413178 -1.243300 7.125000 0.000000 0.000000 29.743100 -46.008700 -0.812700 
-32.911693 18.041658 -1.610707 -42.072940 81.164523 -41.584256 -2.661701 -0.633944 -0.416080 -4.502356 -0.127203 -21.918656 -0.531904 9.238839 24.483560 -0.588672 8.732030 20.656549 0.272400 3.357400 9.275300 3.839944 -2.464660 3.893587 21.740145 1.591886 -2.396495 2.409883 -5.039804 15.825175 5.924403 -20.509691 -12.020821 -0.049400 -1.434400 3.944900 1.865711 -1.514907 14.257694 5.098938 -1.113848 8.298006 2.196337 0.086043 0.279461 -3.759491 5.354602 -4.651923 1.726659 7.425501 11.479603 -0.890500 3.938700 3.170400 -1.344368 -5.799591 0.534458 -84.932042 5.704875 18.117532 22.688135 -32.468938 -8.585476 0.512984 -1.622242 1.132580 -2.147826 12.361813 -0.650000 -7.125000 0.000000 0.000000 -26.729000 42.249200 1.970200 2.176154 7.024126 2.702224 66.596685 -6.332926 40.560513 -22.983972 30.794760 -6.858629 0.656571 0.995902 3.378686 6.038307 -17.683560 -1.755000 7.125000 0.000000 0.000000 31.207300 -46.127500 -0.962400 
-32.896704 18.042582 -1.617893 -42.357543 81.221514 -41.804127 -2.665765 -0.652086 -0.430060 -4.529669 -0.196402 -21.939996 -0.533412 9.253401 24.537840 -0.550921 8.622503 20.623508 0.268300 3.332200 9.205000 3.841637 -2.467821 3.898261 21.712846 1.627144 -2.400975 2.413882 -5.032975 15.803007 5.943939 -20.569860 -12.073778 -0.052900 -1.483900 4.081300 1.855067 -1.503442 14.295574 5.078705 -1.101291 8.277864 2.175716 0.095688 0.248330 -3.855200 5.365097 -4.515761 1.885435 7.378456 11.249873 -0.840400 3.910200 3.067200 -1.349853 -5.817483 0.534625 -84.850126 5.752670 17.893905 22.565352 -32.355471 -8.519934 0.512945 -1.633921 1.255855 -2.393078 12.670425 -0.726100 -7.125000 0.000000 0.000000 -27.063700 42.508200 1.810100 2.181652 7.000131 2.694900 66.586683 -6.382489 40.533180 -22.826199 30.675003 -6.820124 0.634683 1.072883 3.149394 7.387253 -17.938145 -2.238200 7.125000 0.000000 0.000000 32.539300 -46.237000 -1.111100 
-32.881716 18.043301 -1.625181 -42.601205 81.267978 -41.977664 -2.667106 -0.669506 -0.443981 -4.559959 -0.245832 -21.971856 -0.534452 9.268087 24.591112 -0.512778 8.515168 20.598649 0.258800 3.272800 9.039300 3.845181 -2.468526 3.902084 21.683341 1.655372 -2.415381 2.417412 -5.027455 15.783897 5.960702 -20.619254 -12.114426 -0.055200 -1.515700 4.168900 1.842470 -1.498833 14.335724 5.059878 -1.096217 8.267244 2.161141 0.098858 0.218802 -3.892233 5.315138 -4.532275 1.929215 7.303242 11.220969 -0.825000 3.871600 3.057000 -1.355801 -5.816943 0.533720 -84.779355 5.795108 17.672805 22.461997 -32.259547 -8.466094 0.512633 -1.647332 1.361729 -2.644018 13.032965 -0.809200 -7.125000 0.000000 0.000000 -27.428300 42.815100 1.611400 2.187731 6.993646 2.694170 66.557371 -6.400208 40.537381 -22.652907 30.538323 -6.772813 0.614410 1.140029 2.931425 8.580376 -18.173924 -2.681800 7.125000 0.000000 0.000000 33.721000 -46.338000 -1.256300 
-32.866728 18.043814 -1.632778 -42.753574 81.306615 -42.056628 -2.667860 -0.687486 -0.457613 -4.598375 -0.274906 -22.012927 -0.535090 9.283470 24.647173 -0.474651 8.403535 20.558304 0.241600 3.162900 8.732700 3.848512 -2.468566 3.905345 21.645017 1.680563 -2.438707 2.419916 -5.024619 15.771346 5.974876 -20.657101 -12.139309 -0.056900 -1.539300 4.234200 1.829449 -1.474206 14.368463 5.036832 -1.068348 8.246039 2.137401 0.116382 0.188826 -3.988927 5.319490 -4.406132 2.093487 7.248624 10.989578 -0.773000 3.839000 2.955700 -1.360018 -5.833204 0.534021 -84.684629 5.865329 17.517233 22.376617 -32.185534 -8.424566 0.512590 -1.662267 1.430901 -2.900059 13.431457 -0.898900 -7.125000 0.000000 0.000000 -27.816300 43.153700 1.383500 2.193382 6.968730 2.686754 66.543686 -6.452472 40.556941 -22.482327 30.401323 -6.723629 0.596583 1.196374 2.752345 9.611069 -18.386259 -3.077800 7.125000 0.000000 0.000000 34.744300 -46.428200 -1.392300 
